<svg width="28" height="36" viewBox="0 0 28 36" fill="none" xmlns="http://www.w3.org/2000/svg">
<path fill-rule="evenodd" clip-rule="evenodd" d="M8.52065 2.93574H11.5017C11.7747 1.80459 12.7933 0.963867 14.008 0.963867C15.2231 0.963867 16.2418 1.80432 16.5142 2.93574H19.4958C19.6894 2.93574 19.8473 3.09366 19.8473 3.28728V6.52769C19.8473 6.72131 19.6894 6.87924 19.4958 6.87924H8.52085C8.32723 6.87924 8.16931 6.72132 8.16931 6.52769V3.28728C8.16931 3.09367 8.32723 2.93574 8.52085 2.93574H8.52065ZM0.812901 6.42418V34.3318C0.812901 35.1669 1.4944 35.8484 2.32947 35.8484H25.6868C26.5224 35.8484 27.2033 35.1669 27.2033 34.3318L27.2036 6.42418C27.2036 5.58911 26.5221 4.90761 25.687 4.90761H20.9729V6.52771C20.9729 7.34253 20.3107 8.00478 19.4958 8.00478H8.52025C7.70543 8.00478 7.04319 7.34253 7.04319 6.52771V4.90761H2.32907C1.494 4.90761 0.8125 5.58885 0.8125 6.42418H0.812901ZM13.2314 31.2606C12.9207 31.2606 12.6688 31.0087 12.6688 30.6979C12.6688 30.3872 12.9207 30.1353 13.2314 30.1353H22.294C22.6047 30.1353 22.8567 30.3872 22.8567 30.6979C22.8567 31.0087 22.6047 31.2606 22.294 31.2606H13.2314ZM5.72351 30.909V28.0479C5.72351 27.8543 5.88143 27.6964 6.07506 27.6964H8.93616C9.12978 27.6964 9.28771 27.8543 9.28771 28.0479V30.909C9.28771 31.1026 9.12979 31.2606 8.93616 31.2606H6.07506C5.88144 31.2606 5.72351 31.1026 5.72351 30.909ZM13.2314 28.8216C12.9207 28.8216 12.6688 28.5697 12.6688 28.259C12.6688 27.9482 12.9207 27.6963 13.2314 27.6963H22.294C22.6047 27.6963 22.8567 27.9482 22.8567 28.259C22.8567 28.5697 22.6047 28.8216 22.294 28.8216H13.2314ZM13.2314 23.146C12.9207 23.146 12.6688 22.8941 12.6688 22.5834C12.6688 22.2727 12.9207 22.0208 13.2314 22.0208H22.294C22.6047 22.0208 22.8567 22.2727 22.8567 22.5834C22.8567 22.8941 22.6047 23.146 22.294 23.146H13.2314ZM8.93612 23.146H6.07501C5.88139 23.146 5.72347 22.9881 5.72347 22.7945V19.9334C5.72347 19.7398 5.88139 19.5819 6.07501 19.5819H8.93612C9.12973 19.5819 9.28766 19.7398 9.28766 19.9334V22.7945C9.28792 22.9879 9.12974 23.146 8.93612 23.146ZM13.2314 20.707C12.9207 20.707 12.6688 20.4551 12.6688 20.1444C12.6688 19.8337 12.9207 19.5818 13.2314 19.5818H22.294C22.6047 19.5818 22.8567 19.8337 22.8567 20.1444C22.8567 20.4551 22.6047 20.707 22.294 20.707H13.2314ZM13.2314 15.0318C12.9207 15.0318 12.6688 14.7799 12.6688 14.4691C12.6688 14.1584 12.9207 13.9065 13.2314 13.9065H22.294C22.6047 13.9065 22.8567 14.1584 22.8567 14.4691C22.8567 14.7799 22.6047 15.0318 22.294 15.0318H13.2314ZM8.93612 15.0318H6.07501C5.88139 15.0318 5.72347 14.8738 5.72347 14.6802V11.8191C5.72347 11.6255 5.88139 11.4676 6.07501 11.4676H8.93612C9.12973 11.4676 9.28766 11.6255 9.28766 11.8191V14.6802C9.28792 14.8736 9.12974 15.0318 8.93612 15.0318ZM13.2314 12.5926C12.9207 12.5926 12.6688 12.3407 12.6688 12.0299C12.6688 11.7192 12.9207 11.4673 13.2314 11.4673H22.294C22.6047 11.4673 22.8567 11.7192 22.8567 12.0299C22.8567 12.3407 22.6047 12.5926 22.294 12.5926H13.2314Z" fill="#D82221"/>
</svg>
