<svg width="48" height="45" viewBox="0 0 48 45" fill="none" xmlns="http://www.w3.org/2000/svg">
<g clip-path="url(#clip0_444_1186)">
<path d="M42.4471 15.9803H33.6887V9.52691C33.6887 9.29647 33.6118 9.06603 33.4583 8.91223L24.5463 0.999003C24.239 0.768562 23.7781 0.768562 23.4707 0.999003L14.5587 8.91223C14.4052 9.06577 14.3283 9.29647 14.3283 9.52691V15.9803H5.56996C5.10908 15.9803 4.80176 16.3645 4.80176 16.7485V36.8004C4.80176 37.2613 5.18601 37.5686 5.56996 37.5686H42.4472C42.908 37.5686 43.2154 37.1844 43.2154 36.8004V16.7485C43.2154 16.3642 42.8311 15.9803 42.4472 15.9803H42.4471ZM6.41498 17.5937H14.3282V36.0322H6.41498V17.5937ZM15.8648 9.91091L24.0085 2.68913L32.1522 9.91091V36.0322H29.4633V25.43C29.4633 24.9692 29.0791 24.6618 28.6951 24.6618H19.399C18.9381 24.6618 18.6308 25.0461 18.6308 25.43V36.0322H15.9419L15.9416 9.91091H15.8648ZM20.167 36.0322V26.1983H27.8498V36.0322H20.167ZM41.6019 36.0322H33.6887V17.5937H41.6019V36.0322Z" fill="#E01919"/>
<path d="M35.9166 27.5813H39.4507C39.9116 27.5813 40.2189 27.1971 40.2189 26.8131C40.2189 26.4289 39.8347 26.0449 39.4507 26.0449H35.9166C35.4558 26.0449 35.1484 26.4292 35.1484 26.8131C35.1482 27.1974 35.4555 27.5813 35.9166 27.5813Z" fill="#E01919"/>
<path d="M35.9166 33.1897H39.4507C39.9116 33.1897 40.2189 32.8055 40.2189 32.4215C40.2189 32.0373 39.8347 31.6533 39.4507 31.6533H35.9166C35.4558 31.6533 35.1484 32.0376 35.1484 32.4215C35.1482 32.8055 35.4555 33.1897 35.9166 33.1897Z" fill="#E01919"/>
<path d="M35.9166 21.9729H39.4507C39.9116 21.9729 40.2189 21.5887 40.2189 21.2047C40.2189 20.8205 39.8347 20.4365 39.4507 20.4365H35.9166C35.4558 20.4365 35.1484 20.8208 35.1484 21.2047C35.1482 21.5887 35.4555 21.9729 35.9166 21.9729Z" fill="#E01919"/>
<path d="M12.1001 25.9678H8.56606C8.10518 25.9678 7.79785 26.352 7.79785 26.736C7.79785 27.1202 8.1821 27.5042 8.56606 27.5042H12.1001C12.561 27.5042 12.8683 27.1199 12.8683 26.736C12.8686 26.352 12.5613 25.9678 12.1001 25.9678Z" fill="#E01919"/>
<path d="M12.1001 31.6533H8.56606C8.10518 31.6533 7.79785 32.0376 7.79785 32.4215C7.79785 32.8058 8.1821 33.1897 8.56606 33.1897H12.1001C12.561 33.1897 12.8683 32.8055 12.8683 32.4215C12.8686 32.0373 12.5613 31.6533 12.1001 31.6533Z" fill="#E01919"/>
<path d="M12.1001 20.3594H8.56606C8.10518 20.3594 7.79785 20.7436 7.79785 21.1276C7.79785 21.5118 8.1821 21.8958 8.56606 21.8958H12.1001C12.561 21.8958 12.8683 21.5115 12.8683 21.1276C12.8686 20.7433 12.5613 20.3594 12.1001 20.3594Z" fill="#E01919"/>
<path d="M19.3986 16.5949H21.7035V18.8998C21.7035 19.3607 22.0878 19.668 22.4717 19.668H25.5449C26.0058 19.668 26.3131 19.2838 26.3131 18.8998V16.5949H28.6181C29.079 16.5949 29.3863 16.2106 29.3863 15.8267V12.7535C29.3863 12.2926 29.002 11.9853 28.6181 11.9853H26.3131V9.68032C26.3131 9.21943 25.9289 8.91211 25.5449 8.91211H22.4717C22.0109 8.91211 21.7035 9.29636 21.7035 9.68032V11.9853H19.3986C18.9377 11.9853 18.6304 12.3695 18.6304 12.7535V15.8267C18.6304 16.2106 18.9374 16.5949 19.3986 16.5949ZM20.1668 13.5217H22.4717C22.9326 13.5217 23.2399 13.1374 23.2399 12.7535V10.4485H24.7764V12.7535C24.7764 13.2144 25.1606 13.5217 25.5446 13.5217H27.8495V14.9815H25.5446C25.0837 14.9815 24.7764 15.3657 24.7764 15.7497V18.0547L23.2399 18.0544V15.7494C23.2399 15.2885 22.8557 14.9812 22.4717 14.9812H20.1668V13.5217Z" fill="#E01919"/>
</g>
<defs>
<clipPath id="clip0_444_1186">
<rect width="48" height="44.5016" fill="white"/>
</clipPath>
</defs>
</svg>
