<svg width="36" height="38" viewBox="0 0 36 38" fill="none" xmlns="http://www.w3.org/2000/svg">
<path fill-rule="evenodd" clip-rule="evenodd" d="M21.2952 23.3906C25.2189 23.3906 28.3996 26.5715 28.3996 30.495C28.3996 34.4185 25.2187 37.5987 21.2952 37.5987C17.3718 37.5987 14.1915 34.4184 14.1915 30.495C14.1915 26.5716 17.3719 23.3906 21.2952 23.3906ZM24.6705 8.75885C23.3904 8.06459 21.792 8.53959 21.098 9.81977C19.9401 11.9555 20.8203 13.2281 22.2736 14.5111C22.8983 15.0629 23.9291 15.4841 24.585 14.3375L25.7314 12.3319C26.4257 11.0512 25.9512 9.45284 24.6705 8.75859V8.75885ZM9.27399 0.962224C7.91804 0.175377 6.18333 0.63595 5.39649 1.99193C4.08324 4.25303 4.99101 5.65067 6.51354 7.07665C7.16897 7.69038 8.26503 8.17585 9.00676 6.96283L10.3032 4.84051C11.0906 3.48456 10.63 1.74986 9.27406 0.962473L9.27399 0.962224ZM14.5235 15.4275C14.7294 15.1948 15.0116 15.0272 15.3416 14.9669C16.1242 14.8235 16.8756 15.3417 17.019 16.1249L18.0556 21.7347C18.1046 22.0014 17.9683 22.2593 17.7201 22.3686C17.1938 22.6005 16.6939 22.8824 16.2273 23.2074C16.0613 23.323 15.864 23.3446 15.6773 23.2674C15.4898 23.1906 15.3649 23.0366 15.328 22.8376L14.5569 18.6658C16.2286 18.4158 16.6638 16.224 15.018 15.5819L15.0007 15.5756L14.5241 15.4269L14.5235 15.4275ZM21.2948 28.7768C22.244 28.7768 23.014 29.5461 23.014 30.4955C23.014 31.4447 22.244 32.2143 21.2948 32.2143C20.3457 32.2143 19.5761 31.445 19.5761 30.4955C19.5761 29.5463 20.3454 28.7768 21.2948 28.7768ZM19.5622 13.7549C20.3184 13.6681 21.5545 15.7299 22.2891 16.4506C22.5894 16.7451 22.6471 17.131 22.6807 17.3339C23.1273 20.0307 22.9666 20.2106 23.8467 20.2355L33.3642 20.5067C34.7039 20.8652 34.4582 22.2965 33.5811 22.2965L25.0681 22.3995C24.9826 22.4006 24.9089 22.3856 24.8305 22.3515C23.7475 21.8808 22.5513 21.6193 21.2945 21.6193C20.9994 21.6193 20.708 21.6337 20.4203 21.6615C20.1315 21.6898 19.8708 21.5047 19.8018 21.2235L18.3706 15.3752C18.1752 14.5768 18.5314 13.9041 19.5616 13.7549L19.5622 13.7549ZM34.6116 25.1833L35.185 31.0119C35.3347 32.5355 33.483 32.9001 33.1001 31.5158L30.994 25.9295C30.9807 25.8936 30.9849 25.8566 31.0061 25.8249C31.0276 25.7932 31.0599 25.7745 31.0982 25.7735L33.5035 25.6833C33.8812 25.6833 34.2132 25.5561 34.3908 25.1487C34.4115 25.0997 34.4619 25.0724 34.5146 25.0806C34.5673 25.0892 34.6066 25.1304 34.6119 25.1836L34.6116 25.1833ZM2.63013 6.60759C-0.563583 8.97357 0.963649 17.7285 2.06493 23.3631L2.52077 29.2507L2.12106 36.159C2.16276 36.9613 2.82109 37.5994 3.62338 37.5994H4.33308C5.02546 37.5994 5.59355 36.8653 5.7318 36.1863L7.02168 29.8528L7.09931 22.8606C7.79068 21.8136 8.24994 19.8822 8.21348 17.3473L14.046 18.1519C15.6218 18.3111 16.022 16.541 14.8252 16.0742L7.89536 13.9164L7.89483 13.9154C7.66639 12.53 7.30759 11.0392 6.79114 9.47213C6.7316 9.32001 5.16158 6.81999 4.92557 6.45487C4.83719 6.31717 4.76008 6.2217 4.68953 6.15456C4.50619 5.98172 4.36745 6.00873 4.18622 6.03758C3.97115 6.0722 3.42905 6.22616 2.63011 6.60725L2.63013 6.60759ZM28.3754 23.1449H33.0395C33.5619 23.1449 33.9887 23.5719 33.9887 24.0941C33.9887 24.6165 33.5612 25.0433 33.0395 25.0433H29.9118C29.921 25.0472 32.4824 32.1235 32.7898 32.8896H34.2562C35.055 32.8896 35.7024 33.5369 35.7024 34.3358C35.7024 35.1342 35.0551 35.782 34.2562 35.782H32.0719C30.9903 35.782 30.7097 34.938 30.3997 34.4L29.7755 33.124C30.0328 32.2934 30.1712 31.4111 30.1712 30.496C30.1712 28.0849 29.2097 25.8983 27.6502 24.2989C27.4593 24.1035 27.4299 23.81 27.5786 23.5811C27.748 23.3191 28.0426 23.1449 28.3757 23.1449L28.3754 23.1449ZM21.2942 25.4818C24.0633 25.4818 26.3084 27.7269 26.3084 30.496C26.3084 33.2651 24.0633 35.5102 21.2942 35.5102C18.5251 35.5102 16.2799 33.2651 16.2799 30.496C16.2799 27.7269 18.5251 25.4818 21.2942 25.4818Z" fill="white"/>
</svg>
