<svg width="36" height="38" viewBox="0 0 36 38" fill="none" xmlns="http://www.w3.org/2000/svg">
<path fill-rule="evenodd" clip-rule="evenodd" d="M21.2951 23.3906C25.2188 23.3906 28.3995 26.5715 28.3995 30.495C28.3995 34.4185 25.2186 37.5987 21.2951 37.5987C17.3716 37.5987 14.1914 34.4184 14.1914 30.495C14.1914 26.5716 17.3718 23.3906 21.2951 23.3906ZM24.6704 8.75885C23.3902 8.06459 21.7919 8.53959 21.0979 9.81977C19.94 11.9555 20.8202 13.2281 22.2735 14.5111C22.8982 15.0629 23.9289 15.4841 24.5849 14.3375L25.7313 12.3319C26.4256 11.0512 25.9511 9.45284 24.6704 8.75859V8.75885ZM9.27387 0.962224C7.91792 0.175377 6.18321 0.63595 5.39637 1.99193C4.08312 4.25303 4.99088 5.65067 6.51342 7.07665C7.16885 7.69038 8.26491 8.17585 9.00664 6.96283L10.3031 4.84051C11.0905 3.48456 10.6299 1.74986 9.27393 0.962473L9.27387 0.962224ZM14.5234 15.4275C14.7292 15.1948 15.0115 15.0272 15.3414 14.9669C16.124 14.8235 16.8755 15.3417 17.0189 16.1249L18.0555 21.7347C18.1045 22.0014 17.9681 22.2593 17.72 22.3686C17.1936 22.6005 16.6937 22.8824 16.2272 23.2074C16.0611 23.323 15.8639 23.3446 15.6772 23.2674C15.4896 23.1906 15.3648 23.0366 15.3278 22.8376L14.5568 18.6658C16.2285 18.4158 16.6636 16.224 15.0178 15.5819L15.0005 15.5756L14.524 15.4269L14.5234 15.4275ZM21.2947 28.7768C22.2439 28.7768 23.0139 29.5461 23.0139 30.4955C23.0139 31.4447 22.2439 32.2143 21.2947 32.2143C20.3456 32.2143 19.576 31.445 19.576 30.4955C19.576 29.5463 20.3453 28.7768 21.2947 28.7768ZM19.5621 13.7549C20.3183 13.6681 21.5544 15.7299 22.289 16.4506C22.5893 16.7451 22.647 17.131 22.6805 17.3339C23.1272 20.0307 22.9664 20.2106 23.8466 20.2355L33.3641 20.5067C34.7038 20.8652 34.4581 22.2965 33.581 22.2965L25.068 22.3995C24.9825 22.4006 24.9088 22.3856 24.8304 22.3515C23.7474 21.8808 22.5512 21.6193 21.2943 21.6193C20.9993 21.6193 20.7079 21.6337 20.4201 21.6615C20.1314 21.6898 19.8707 21.5047 19.8017 21.2235L18.3705 15.3752C18.1751 14.5768 18.5313 13.9041 19.5615 13.7549L19.5621 13.7549ZM34.6115 25.1833L35.1848 31.0119C35.3346 32.5355 33.4829 32.9001 33.1 31.5158L30.9939 25.9295C30.9805 25.8936 30.9847 25.8566 31.006 25.8249C31.0275 25.7932 31.0597 25.7745 31.098 25.7735L33.5034 25.6833C33.881 25.6833 34.2131 25.5561 34.3907 25.1487C34.4114 25.0997 34.4617 25.0724 34.5145 25.0806C34.5672 25.0892 34.6065 25.1304 34.6118 25.1836L34.6115 25.1833ZM2.63001 6.60759C-0.563705 8.97357 0.963527 17.7285 2.0648 23.3631L2.52064 29.2507L2.12094 36.159C2.16264 36.9613 2.82097 37.5994 3.62326 37.5994H4.33296C5.02533 37.5994 5.59343 36.8653 5.73168 36.1863L7.02156 29.8528L7.09919 22.8606C7.79056 21.8136 8.24982 19.8822 8.21336 17.3473L14.0459 18.1519C15.6216 18.3111 16.0219 16.541 14.825 16.0742L7.89524 13.9164L7.89471 13.9154C7.66627 12.53 7.30747 11.0392 6.79102 9.47213C6.73148 9.32001 5.16146 6.81999 4.92545 6.45487C4.83706 6.31717 4.75996 6.2217 4.6894 6.15456C4.50607 5.98172 4.36733 6.00873 4.18609 6.03758C3.97103 6.0722 3.42892 6.22616 2.62999 6.60725L2.63001 6.60759ZM28.3753 23.1449H33.0393C33.5618 23.1449 33.9886 23.5719 33.9886 24.0941C33.9886 24.6165 33.561 25.0433 33.0393 25.0433H29.9117C29.9209 25.0472 32.4823 32.1235 32.7896 32.8896H34.256C35.0549 32.8896 35.7022 33.5369 35.7022 34.3358C35.7022 35.1342 35.0549 35.782 34.256 35.782H32.0718C30.9902 35.782 30.7096 34.938 30.3996 34.4L29.7753 33.124C30.0326 32.2934 30.1711 31.4111 30.1711 30.496C30.1711 28.0849 29.2096 25.8983 27.6501 24.2989C27.4592 24.1035 27.4298 23.81 27.5785 23.5811C27.7479 23.3191 28.0425 23.1449 28.3756 23.1449L28.3753 23.1449ZM21.2941 25.4818C24.0632 25.4818 26.3083 27.7269 26.3083 30.496C26.3083 33.2651 24.0632 35.5102 21.2941 35.5102C18.5249 35.5102 16.2798 33.2651 16.2798 30.496C16.2798 27.7269 18.5249 25.4818 21.2941 25.4818Z" fill="white"/>
</svg>
