<svg width="35" height="34" viewBox="0 0 35 34" fill="none" xmlns="http://www.w3.org/2000/svg">
<path d="M7.62496 27.4395C5.97679 27.4395 4.64014 28.7829 4.64014 30.4313C4.64014 32.0726 5.97679 33.4161 7.62496 33.4161C9.27312 33.4161 10.6098 32.0726 10.6098 30.4313C10.6098 28.7829 9.27312 27.4395 7.62496 27.4395Z" fill="#D82221"/>
<path d="M0.886719 25.7695V28.8998C0.886719 30.1257 1.88402 31.123 3.10987 31.123H3.31762C3.27617 30.8944 3.25532 30.666 3.25532 30.4304C3.25532 28.0203 5.21526 26.0534 7.62529 26.0534C10.0354 26.0534 11.9953 28.0203 11.9953 30.4304C11.9953 30.6658 11.9744 30.8943 11.933 31.123H23.0764C23.0349 30.8944 23.0141 30.666 23.0141 30.4304C23.0141 28.0203 24.974 26.0534 27.384 26.0534C29.7941 26.0534 31.754 28.0203 31.754 30.4304C31.754 30.6658 31.7332 30.8943 31.6917 31.123H31.9065C33.1323 31.123 34.1296 30.1257 34.1296 28.8998V25.7695H0.886719Z" fill="#D82221"/>
<path d="M27.3837 27.4395C25.7424 27.4395 24.3989 28.7829 24.3989 30.4313C24.3989 32.0726 25.7424 33.4161 27.3837 33.4161C29.0319 33.4161 30.3686 32.0726 30.3686 30.4313C30.3686 28.7829 29.0319 27.4395 27.3837 27.4395Z" fill="#D82221"/>
<path d="M34.1227 23.6999C34.1227 22.9935 33.7834 22.3217 33.2086 21.8992L29.6558 19.3229C29.5103 19.2189 29.4066 19.0737 29.3511 18.9074L28.0905 15.0775C27.7928 14.1633 26.941 13.5469 25.9781 13.5469H13.9665C13.4774 14.358 13.024 15.0672 12.6823 15.5879C12.3151 16.1612 11.6481 16.5249 10.9495 16.5249C10.2569 16.5249 9.61037 16.1807 9.22021 15.6037C8.8748 15.0779 8.41712 14.3635 7.92452 13.5469H3.1031C1.88426 13.5469 0.886963 14.5442 0.886963 15.77V24.3855H34.123L34.1227 23.6999ZM10.2713 21.4905C10.2713 21.8784 9.95954 22.1831 9.57868 22.1831H4.63393C4.2531 22.1831 3.94132 21.8784 3.94132 21.4905V17.3004C3.94132 16.9126 4.25307 16.6078 4.63393 16.6078H9.57868C9.95951 16.6078 10.2713 16.9125 10.2713 17.3004V21.4905ZM18.2771 21.4905C18.2771 21.8784 17.9653 22.1831 17.5845 22.1831H12.6397C12.2519 22.1831 11.9471 21.8784 11.9471 21.4905V17.3004C11.9471 16.9126 12.2518 16.6078 12.6397 16.6078H17.5845C17.9653 16.6078 18.2771 16.9125 18.2771 17.3004V21.4905ZM26.8095 21.8922C26.6779 22.0723 26.4702 22.1761 26.2486 22.1761L20.639 22.1831C20.4588 22.1831 20.2787 22.1138 20.1541 21.9822C20.0225 21.8505 19.9464 21.6774 19.9464 21.4905V17.3004C19.9464 16.9126 20.2579 16.6078 20.639 16.6078H24.8706C25.1753 16.6078 25.4385 16.7947 25.5284 17.0788L26.9066 21.2687C26.9759 21.4837 26.9412 21.7121 26.8096 21.8922L26.8095 21.8922Z" fill="#D82221"/>
<path d="M10.9499 15.1393C11.1785 15.1393 11.4 15.0215 11.5246 14.8279C11.9748 14.1423 15.9222 8.07544 15.9222 5.57512C15.9222 2.83268 13.6923 0.595703 10.9496 0.595703C8.20018 0.595703 5.97021 2.83268 5.97021 5.57512C5.97021 8.07538 9.91767 14.1417 10.3681 14.8279C10.4997 15.0215 10.7145 15.1393 10.9499 15.1393ZM8.72671 5.6236C8.72671 4.39775 9.72401 3.40045 10.9499 3.40045C12.1687 3.40045 13.166 4.39775 13.166 5.6236C13.166 6.84945 12.1687 7.84675 10.9499 7.84675C9.72401 7.84675 8.72671 6.84945 8.72671 5.6236Z" fill="#D82221"/>
</svg>
