<svg width="35" height="39" viewBox="0 0 35 39" fill="none" xmlns="http://www.w3.org/2000/svg">
<path d="M17.4193 9.07991C17.3743 9.07991 17.3293 9.07991 17.2843 9.07496C17.02 9.04767 16.7652 8.96152 16.5386 8.82282C16.312 8.68413 16.1193 8.49643 15.9748 8.27351C15.9208 8.19408 15.8833 8.10467 15.8644 8.01053C15.8455 7.91638 15.8457 7.81942 15.8648 7.72533C15.884 7.63124 15.9218 7.54193 15.976 7.46266C16.0301 7.38339 16.0996 7.31576 16.1803 7.26375C16.261 7.21173 16.3513 7.17639 16.4459 7.15979C16.5405 7.14319 16.6374 7.14568 16.731 7.1671C16.8246 7.18852 16.913 7.22845 16.9909 7.28453C17.0689 7.34061 17.1348 7.41172 17.1848 7.49366C17.232 7.56464 17.3033 7.61612 17.3855 7.63856C17.4371 7.643 17.4891 7.63719 17.5384 7.62148C17.5878 7.60576 17.6335 7.58045 17.673 7.54699C17.7125 7.51353 17.7451 7.4726 17.7687 7.42653C17.7923 7.38046 17.8066 7.33017 17.8108 7.27856C17.8146 7.22799 17.8084 7.17716 17.7924 7.12903C17.7764 7.0809 17.751 7.03643 17.7176 6.99821C17.6501 6.91963 17.5541 6.87108 17.4508 6.86321H17.4472C17.2042 6.85036 16.9663 6.78914 16.7473 6.68314C16.5283 6.57714 16.3327 6.42849 16.1719 6.24591C16.0111 6.06333 15.8884 5.85048 15.8109 5.61985C15.7335 5.38923 15.7028 5.14546 15.7208 4.90283C15.7388 4.66021 15.805 4.42361 15.9156 4.20691C16.0262 3.99022 16.1789 3.79778 16.3649 3.64088C16.5508 3.48398 16.7662 3.36577 16.9984 3.29319C17.2306 3.22062 17.475 3.19512 17.7172 3.21821C17.9814 3.2456 18.2361 3.33179 18.4626 3.47048C18.6891 3.60917 18.8817 3.79682 19.0262 4.01966C19.1298 4.1803 19.1652 4.37549 19.1249 4.56229C19.0845 4.74909 18.9715 4.9122 18.8109 5.01573C18.6503 5.11927 18.4551 5.15475 18.2683 5.11437C18.0815 5.07399 17.9184 4.96105 17.8148 4.80041C17.7673 4.72954 17.6959 4.67811 17.6137 4.65551C17.5621 4.65107 17.5101 4.65688 17.4608 4.67259C17.4115 4.68831 17.3657 4.71362 17.3262 4.74708C17.2867 4.78054 17.2542 4.82147 17.2305 4.86754C17.2069 4.91361 17.1926 4.9639 17.1884 5.01551C17.1846 5.06608 17.1909 5.1169 17.2069 5.16503C17.2229 5.21315 17.2483 5.25763 17.2816 5.29586C17.3494 5.37435 17.4455 5.42287 17.5489 5.43086H17.5516C18.0235 5.46566 18.4635 5.68211 18.7791 6.03469C19.0947 6.38726 19.2613 6.84849 19.2438 7.32136C19.2263 7.79423 19.0261 8.24189 18.6854 8.57019C18.3446 8.8985 17.8898 9.08186 17.4166 9.08171L17.4193 9.07991Z" fill="#D82221"/>
<path d="M17.4998 4.66112C17.3088 4.66112 17.1257 4.58526 16.9907 4.45024C16.8556 4.31521 16.7798 4.13207 16.7798 3.94112V3.26297C16.7798 3.07201 16.8556 2.88888 16.9907 2.75385C17.1257 2.61883 17.3088 2.54297 17.4998 2.54297C17.6907 2.54297 17.8739 2.61883 18.0089 2.75385C18.1439 2.88888 18.2198 3.07201 18.2198 3.26297V3.94112C18.2198 4.03567 18.2012 4.1293 18.165 4.21665C18.1288 4.30401 18.0758 4.38338 18.0089 4.45024C17.942 4.51709 17.8627 4.57013 17.7753 4.60631C17.688 4.6425 17.5943 4.66112 17.4998 4.66112Z" fill="#D82221"/>
<path d="M17.5 9.75194C17.3091 9.75194 17.1259 9.67608 16.9909 9.54106C16.8559 9.40603 16.78 9.2229 16.78 9.03194V8.35379C16.78 8.16283 16.8559 7.9797 16.9909 7.84467C17.1259 7.70965 17.3091 7.63379 17.5 7.63379C17.691 7.63379 17.8741 7.70965 18.0091 7.84467C18.1442 7.9797 18.22 8.16283 18.22 8.35379V9.03194C18.22 9.2229 18.1442 9.40603 18.0091 9.54106C17.8741 9.67608 17.691 9.75194 17.5 9.75194Z" fill="#D82221"/>
<path d="M17.4999 11.515C14.5299 11.515 12.1094 9.10527 12.1094 6.14742C12.1094 3.18957 14.5299 0.780273 17.4999 0.780273C20.4699 0.780273 22.8905 3.18822 22.8905 6.14742C22.8905 9.10662 20.4722 11.515 17.4999 11.515ZM17.4999 2.22027C15.3215 2.22027 13.5494 3.98202 13.5494 6.14742C13.5494 8.31282 15.3215 10.075 17.4999 10.075C19.6784 10.075 21.4505 8.31327 21.4505 6.14742C21.4505 3.98157 19.6784 2.22027 17.4999 2.22027Z" fill="#D82221"/>
<path d="M24.5966 19.2752C24.4887 19.2752 24.3821 19.2509 24.2848 19.2042C24.1875 19.1575 24.102 19.0895 24.0345 19.0052L20.5313 14.6402C20.1006 14.1034 19.5899 13.8082 19.0913 13.8082H11.2703C11.0793 13.8082 10.8962 13.7323 10.7612 13.5973C10.6261 13.4623 10.5503 13.2791 10.5503 13.0882C10.5503 12.8972 10.6261 12.7141 10.7612 12.579C10.8962 12.444 11.0793 12.3682 11.2703 12.3682H19.0926C20.0376 12.3682 20.9448 12.8551 21.6545 13.7384L25.1577 18.1034C25.2425 18.2092 25.2956 18.3368 25.311 18.4715C25.3264 18.6062 25.3035 18.7425 25.2449 18.8648C25.1863 18.987 25.0943 19.0902 24.9796 19.1625C24.8649 19.2348 24.7322 19.2732 24.5966 19.2734V19.2752Z" fill="#D82221"/>
<path d="M32.5616 25.402H9.36049C9.09846 25.3952 8.8443 25.311 8.63007 25.16C8.41584 25.0089 8.25114 24.7978 8.15674 24.5533L0.220093 2.75124C0.107757 2.44182 0.122805 2.10047 0.261933 1.80213C0.401061 1.50379 0.652897 1.27286 0.962143 1.16004C2.53859 0.590858 4.27628 0.668967 5.7953 1.37729C7.31433 2.08562 8.49113 3.36655 9.06844 4.94004L13.7651 17.8352H27.4784C30.9659 17.8352 33.8031 20.6702 33.8031 24.16C33.8028 24.4892 33.6719 24.8048 33.4391 25.0377C33.2064 25.2705 32.8908 25.4015 32.5616 25.402ZM9.4739 23.962H32.3591C32.3064 22.7023 31.7694 21.5117 30.86 20.6384C29.9506 19.7652 28.7392 19.2768 27.4784 19.2752H13.2584C13.1109 19.2749 12.9671 19.2293 12.8463 19.1445C12.7256 19.0598 12.6338 18.94 12.5834 18.8014L7.71664 5.43279C7.28408 4.24866 6.41096 3.2773 5.27947 2.72141C4.14798 2.16552 2.84553 2.06803 1.64389 2.44929L9.4739 23.962Z" fill="#D82221"/>
<path d="M10.8189 32.9871C10.6931 32.987 10.5696 32.9539 10.4605 32.8911C10.3515 32.8284 10.2608 32.7382 10.1975 32.6295C10.1341 32.5208 10.1004 32.3974 10.0996 32.2716C10.0988 32.1458 10.131 32.022 10.193 31.9125L12.1217 28.4997L14.4671 24.3511C14.5123 24.2664 14.5739 24.1915 14.6485 24.1309C14.723 24.0703 14.809 24.0253 14.9012 23.9984C14.9934 23.9716 15.0901 23.9635 15.1855 23.9745C15.2809 23.9856 15.3731 24.0156 15.4568 24.0629C15.5404 24.1102 15.6137 24.1737 15.6724 24.2497C15.7311 24.3257 15.774 24.4128 15.7986 24.5056C15.8231 24.5985 15.8289 24.6953 15.8154 24.7904C15.802 24.8855 15.7697 24.977 15.7203 25.0594L13.3749 29.2084L11.4462 32.6194C11.3837 32.7309 11.2926 32.8236 11.1824 32.8883C11.0722 32.9529 10.9467 32.987 10.8189 32.9871Z" fill="#D82221"/>
<path d="M12.5761 34.0525C12.4506 34.0524 12.3273 34.0194 12.2184 33.9569C12.1095 33.8944 12.0189 33.8045 11.9555 33.6962C11.8921 33.5878 11.8581 33.4648 11.857 33.3393C11.8558 33.2138 11.8874 33.0901 11.9488 32.9806L14.4548 28.5045L16.78 24.3555C16.8262 24.273 16.8882 24.2004 16.9625 24.1418C17.0367 24.0833 17.1218 24.04 17.2128 24.0143C17.3038 23.9887 17.399 23.9812 17.4929 23.9923C17.5868 24.0034 17.6776 24.0329 17.7601 24.0792C17.8426 24.1254 17.9152 24.1874 17.9737 24.2616C18.0322 24.3359 18.0756 24.421 18.1012 24.512C18.1269 24.603 18.1344 24.6982 18.1232 24.7921C18.1121 24.886 18.0826 24.9768 18.0364 25.0593L15.713 29.2083L13.207 33.6844C13.1442 33.7965 13.0526 33.8897 12.9417 33.9544C12.8307 34.0191 12.7045 34.053 12.5761 34.0525Z" fill="#D82221"/>
<path d="M26.0593 34.0437C25.932 34.0438 25.807 34.0101 25.6969 33.946C25.5869 33.882 25.4958 33.7899 25.4329 33.6792L20.532 25.0514C20.4842 24.9691 20.4532 24.8782 20.4408 24.7839C20.4283 24.6896 20.4347 24.5938 20.4595 24.5019C20.4843 24.4101 20.5271 24.3241 20.5853 24.2489C20.6436 24.1737 20.7161 24.1107 20.7988 24.0637C20.8815 24.0167 20.9727 23.9866 21.0671 23.9751C21.1616 23.9635 21.2573 23.9708 21.3489 23.9965C21.4405 24.0221 21.5261 24.0657 21.6008 24.1247C21.6754 24.1836 21.7377 24.2568 21.7839 24.3399L26.6848 32.9678C26.7471 33.0773 26.7796 33.2012 26.779 33.3271C26.7784 33.4531 26.7447 33.5767 26.6814 33.6856C26.6181 33.7945 26.5274 33.8849 26.4182 33.9477C26.309 34.0106 26.1853 34.0437 26.0593 34.0437Z" fill="#D82221"/>
<path d="M27.816 32.975C27.6886 32.9751 27.5635 32.9415 27.4533 32.8774C27.3432 32.8134 27.2521 32.7213 27.1892 32.6105L22.8953 25.0505C22.8485 24.9683 22.8185 24.8776 22.8068 24.7838C22.7951 24.6899 22.802 24.5947 22.8271 24.5035C22.8522 24.4124 22.8951 24.327 22.9532 24.2524C23.0113 24.1778 23.0835 24.1153 23.1657 24.0686C23.2479 24.0219 23.3386 23.9918 23.4324 23.9801C23.5263 23.9684 23.6215 23.9754 23.7127 24.0005C23.8038 24.0256 23.8892 24.0684 23.9638 24.1265C24.0384 24.1846 24.1009 24.2568 24.1476 24.339L28.4415 31.899C28.5037 32.0085 28.536 32.1324 28.5354 32.2583C28.5347 32.3842 28.5011 32.5077 28.4378 32.6165C28.3745 32.7254 28.2838 32.8157 28.1747 32.8785C28.0656 32.9413 27.9419 32.9744 27.816 32.9746V32.975Z" fill="#D82221"/>
<path d="M19.3091 38.2201C16.1995 38.2196 13.143 37.414 10.437 35.8818C7.73109 34.3496 5.46793 32.1429 3.86782 29.4766C3.81882 29.3954 3.78632 29.3054 3.7722 29.2117C3.75807 29.1179 3.7626 29.0223 3.78551 28.9303C3.80842 28.8384 3.84927 28.7518 3.90571 28.6757C3.96216 28.5995 4.03308 28.5352 4.11442 28.4866L6.29512 27.1789C6.37626 27.1299 6.46629 27.0974 6.56002 27.0832C6.65375 27.0691 6.74935 27.0736 6.84134 27.0965C6.93332 27.1195 7.01987 27.1603 7.09602 27.2167C7.17218 27.2732 7.23644 27.3441 7.28512 27.4255C8.25644 29.0448 9.54474 30.4514 11.0728 31.5608C12.6009 32.6702 14.3372 33.4597 16.1777 33.8818C18.0183 34.3039 19.9251 34.3501 21.7839 34.0175C23.6427 33.6849 25.4152 32.9804 26.9951 31.9462C27.4736 31.6317 27.9327 31.2886 28.3699 30.9188C29.5443 29.9247 30.5477 28.7446 31.3399 27.4255C31.4382 27.2618 31.5975 27.1439 31.7827 27.0976C31.9679 27.0514 32.1639 27.0806 32.3276 27.1789L34.5083 28.4888C34.5897 28.5375 34.6606 28.6017 34.717 28.6779C34.7735 28.7541 34.8143 28.8406 34.8372 28.9326C34.8601 29.0246 34.8647 29.1202 34.8505 29.2139C34.8364 29.3076 34.8039 29.3977 34.7549 29.4788C33.155 32.1462 30.8912 34.3534 28.1842 35.8854C25.4773 37.4174 22.4195 38.2217 19.3091 38.2201ZM5.48512 29.3443C6.99485 31.6298 9.04776 33.5054 11.4601 34.803C13.8724 36.1006 16.5688 36.7798 19.308 36.7798C22.0472 36.7798 24.7436 36.1006 27.1559 34.803C29.5682 33.5054 31.6211 31.6298 33.1309 29.3443L32.1859 28.7755C30.7744 30.8974 28.8603 32.6377 26.614 33.8414C24.3676 35.0451 21.8586 35.6749 19.31 35.6749C16.7615 35.6749 14.2524 35.0451 12.0061 33.8414C9.75972 32.6377 7.84566 30.8974 6.43417 28.7755L5.48512 29.3443Z" fill="#D82221"/>
</svg>
