<svg width="55" height="45" viewBox="0 0 55 45" fill="none" xmlns="http://www.w3.org/2000/svg">
<g clip-path="url(#clip0_444_1322)">
<path d="M47.8234 32.7169H7.19531V20.4947C7.19531 18.9976 8.4136 17.7793 9.91069 17.7793H37.8678C39.044 17.7793 40.0814 18.53 40.4483 19.6482L41.985 24.3295C42.0529 24.5346 42.1809 24.7114 42.3562 24.8379L46.7025 27.9914C47.4044 28.5005 47.8235 29.3224 47.8235 30.1894L47.8234 32.7169ZM8.88835 31.0239H46.1304V30.1891C46.1304 29.8628 45.9726 29.5536 45.7088 29.3617L41.3625 26.2082C40.898 25.8717 40.5565 25.4047 40.3763 24.8582L38.8396 20.1754C38.7015 19.7548 38.3106 19.472 37.8676 19.472H9.91051C9.3468 19.472 8.88809 19.931 8.88809 20.4947L8.88835 31.0239Z" fill="#D82221"/>
<path d="M45.1094 39.2583H41.5426V38.4118C41.5426 37.3323 40.6648 36.4545 39.5859 36.4545C38.5064 36.4545 37.6286 37.3323 37.6286 38.4118V39.2583H17.3932V38.4118C17.3932 37.3323 16.5154 36.4545 15.4359 36.4545C14.3564 36.4545 13.4786 37.3323 13.4786 38.4118V39.2583H9.91215C8.41507 39.2583 7.19678 38.04 7.19678 36.5429V31.0234L47.8249 31.0237V36.5432C47.8249 38.04 46.6066 39.2583 45.1095 39.2583L45.1094 39.2583ZM43.1362 37.5657H45.1094C45.6731 37.5657 46.1318 37.1067 46.1318 36.5429V32.7164H8.88981V36.5429C8.88981 37.1165 9.33868 37.5654 9.91223 37.5654H11.8846C12.2675 35.9592 13.7139 34.7616 15.4357 34.7616C17.1576 34.7616 18.6042 35.9592 18.9869 37.5654H36.0351C36.418 35.9592 37.8643 34.7616 39.5862 34.7616C41.3074 34.7616 42.7542 35.9592 43.1367 37.5657H43.1362Z" fill="#D82221"/>
<path d="M31.3401 28.3379C31.116 28.3379 30.9005 28.2485 30.7417 28.0898C30.583 27.9311 30.4937 27.7152 30.4937 27.4905V22.3631C30.4937 21.8952 30.8722 21.5166 31.3402 21.5166H36.5139C36.8793 21.5166 37.2041 21.7515 37.3183 22.0984L38.9996 27.2175C39.084 27.4754 39.0401 27.7582 38.8814 27.978C38.7227 28.1982 38.4672 28.3287 38.1961 28.3287L31.3411 28.3379L31.3401 28.3379ZM32.1866 23.2096V26.6434L37.0263 26.6376L35.9014 23.2096L32.1866 23.2096Z" fill="#D82221"/>
<path d="M17.8218 28.3379H11.7791C11.3112 28.3379 10.9326 27.9594 10.9326 27.4914V22.3631C10.9326 21.8952 11.3112 21.5166 11.7791 21.5166H17.8218C18.2897 21.5166 18.6683 21.8952 18.6683 22.3631V27.4914C18.6683 27.9593 18.2897 28.3379 17.8218 28.3379ZM12.6256 26.645H16.9753V23.2096H12.6256V26.645Z" fill="#D82221"/>
<path d="M27.6025 28.3379H21.5599C21.092 28.3379 20.7134 27.9594 20.7134 27.4914V22.3631C20.7134 21.8952 21.0919 21.5166 21.5599 21.5166H27.6025C28.0705 21.5166 28.4491 21.8952 28.4491 22.3631V27.4914C28.4488 27.9593 28.0702 28.3379 27.6025 28.3379ZM22.4064 26.645H26.7561V23.2096H22.4064V26.645Z" fill="#D82221"/>
<path d="M15.4354 42.0622C13.4225 42.0622 11.7852 40.4248 11.7852 38.412C11.7852 36.3991 13.4225 34.7617 15.4354 34.7617C17.4483 34.7617 19.0856 36.3991 19.0856 38.412C19.0859 40.4245 17.4483 42.0622 15.4354 42.0622ZM15.4354 36.4543C14.3559 36.4543 13.4781 37.3321 13.4781 38.4116C13.4781 39.4911 14.3559 40.3689 15.4354 40.3689C16.5149 40.3689 17.3927 39.4911 17.3927 38.4116C17.393 37.3321 16.5152 36.4543 15.4354 36.4543Z" fill="#D82221"/>
<path d="M39.5863 42.0622C37.5734 42.0622 35.936 40.4248 35.936 38.412C35.936 36.3991 37.5734 34.7617 39.5863 34.7617C41.5983 34.7617 43.236 36.3991 43.236 38.412C43.2357 40.4245 41.5983 42.0622 39.5863 42.0622ZM39.5863 36.4543C38.5068 36.4543 37.629 37.3321 37.629 38.4116C37.629 39.4911 38.5068 40.3689 39.5863 40.3689C40.6649 40.3689 41.543 39.4911 41.543 38.4116C41.543 37.3321 40.6649 36.4543 39.5863 36.4543Z" fill="#D82221"/>
<path d="M19.4934 19.7246C19.2091 19.7246 18.9429 19.5815 18.7867 19.3435C18.2362 18.5078 13.4121 11.0922 13.4121 8.03542C13.4121 4.68174 16.1401 1.9541 19.4934 1.9541C22.8471 1.9541 25.5748 4.68205 25.5748 8.03542C25.5748 11.0922 20.7507 18.508 20.2002 19.3435C20.0439 19.5815 19.7778 19.7246 19.4934 19.7246ZM19.4934 3.64703C17.0741 3.64703 15.1051 5.61603 15.1051 8.0354C15.1051 9.89695 17.8306 14.6482 19.4934 17.3078C21.1566 14.6486 23.8818 9.89703 23.8818 8.0354C23.8818 5.61603 21.9128 3.64703 19.4934 3.64703Z" fill="#D82221"/>
<path d="M19.4937 10.8106C17.9966 10.8106 16.7783 9.59231 16.7783 8.09428C16.7783 6.5972 17.9966 5.37891 19.4937 5.37891C20.9908 5.37891 22.2091 6.5972 22.2091 8.09428C22.2091 9.59231 20.9908 10.8106 19.4937 10.8106ZM19.4937 7.07194C18.93 7.07194 18.4713 7.53064 18.4713 8.09436C18.4713 8.65899 18.93 9.11773 19.4937 9.11773C20.0574 9.11773 20.5161 8.65903 20.5161 8.09436C20.5161 7.53066 20.0574 7.07194 19.4937 7.07194Z" fill="#D82221"/>
</g>
<defs>
<clipPath id="clip0_444_1322">
<rect width="55" height="44.6838" fill="white"/>
</clipPath>
</defs>
</svg>
